<?xml version="1.0" standalone="no"?><!DOCTYPE svg PUBLIC "-//W3C//DTD SVG 1.1//EN" "http://www.w3.org/Graphics/SVG/1.1/DTD/svg11.dtd"><svg t="1578753132653" class="icon" viewBox="0 0 1024 1024" version="1.1" xmlns="http://www.w3.org/2000/svg" p-id="4252" xmlns:xlink="http://www.w3.org/1999/xlink" width="200" height="200"><defs><style type="text/css"></style></defs><path d="M804 928H380a80 80 0 0 1-80-80V256c0-44 36 0 80 0h424a80 80 0 0 1 80 80v512a80 80 0 0 1-80 80z" fill="#CBECF9" p-id="4253"></path><path d="M804 936H380a88 88 0 0 1-88-88V256c0-8 0.96-19.48 9.12-24.88 9.24-6.12 20.72-1.2 35.24 5 12.4 5.28 28 12 43.64 12h424a88 88 0 0 1 88 88V848a88 88 0 0 1-88 88zM311.08 244.28a2.6 2.6 0 0 0-1.12 0.2S308 246.32 308 256v592a72 72 0 0 0 72 72h424a72 72 0 0 0 72-72V336a72 72 0 0 0-72-72H380c-19.12 0-36-7.32-49.92-13.16a78.92 78.92 0 0 0-19-6.56z" fill="#2FB1EA" p-id="4254"></path><path d="M220 176l584 0 0 672-584 0 0-672Z" fill="#E5F5FC" p-id="4255"></path><path d="M724 856H300a88 88 0 0 1-88-88V256a88 88 0 0 1 88-88h424a88 88 0 0 1 88 88v512a88 88 0 0 1-88 88zM300 184a72 72 0 0 0-72 72v512a72 72 0 0 0 72 72h424a72 72 0 0 0 72-72V256a72 72 0 0 0-72-72z" fill="#2FB1EA" p-id="4256"></path><path d="M140 96l584 0 0 672-584 0 0-672Z" fill="#CBECF9" p-id="4257"></path><path d="M140 96l548 0 0 634.08-548 0 0-634.08Z" fill="#FFFFFF" p-id="4258" data-spm-anchor-id="a313x.7781069.0.i2" class="selected"></path><path d="M644 776H220a88 88 0 0 1-88-88V176a88 88 0 0 1 88-88h424a88 88 0 0 1 88 88v512a88 88 0 0 1-88 88zM220 104a72 72 0 0 0-72 72v512a72 72 0 0 0 72 72h424a72 72 0 0 0 72-72V176a72 72 0 0 0-72-72z" fill="#2FB1EA" p-id="4259"></path><path d="M212 188l120 0 0 120-120 0 0-120Z" fill="#52E355" p-id="4260"></path><path d="M212 188l120 0 0 92-120 0 0-92Z" fill="#90FC95" p-id="4261"></path><path d="M308 316H236a32 32 0 0 1-32-32V212a32 32 0 0 1 32-32h72a32 32 0 0 1 32 32v72a32 32 0 0 1-32 32zM236 196a16 16 0 0 0-16 16v72a16 16 0 0 0 16 16h72a16 16 0 0 0 16-16V212a16 16 0 0 0-16-16z" fill="#2FB1EA" p-id="4262"></path><path d="M212 372l120 0 0 120-120 0 0-120Z" fill="#CBECF9" p-id="4263"></path><path d="M212 372l120 0 0 92-120 0 0-92Z" fill="#FFFFFF" p-id="4264"></path><path d="M308 500H236a32 32 0 0 1-32-32V396a32 32 0 0 1 32-32h72a32 32 0 0 1 32 32v72a32 32 0 0 1-32 32zM236 380a16 16 0 0 0-16 16v72a16 16 0 0 0 16 16h72a16 16 0 0 0 16-16V396a16 16 0 0 0-16-16z" fill="#2FB1EA" p-id="4265"></path><path d="M212 556l120 0 0 120-120 0 0-120Z" fill="#F97171" p-id="4266"></path><path d="M212 556l120 0 0 92-120 0 0-92Z" fill="#FF8888" p-id="4267"></path><path d="M308 684H236a32 32 0 0 1-32-32v-72a32 32 0 0 1 32-32h72a32 32 0 0 1 32 32v72a32 32 0 0 1-32 32z m-72-120a16 16 0 0 0-16 16v72a16 16 0 0 0 16 16h72a16 16 0 0 0 16-16v-72a16 16 0 0 0-16-16z" fill="#2FB1EA" p-id="4268"></path><path d="M388 188l132 0 0 40-132 0 0-40Z" fill="#A4ECFF" p-id="4269"></path><path d="M388 268l264 0 0 40-264 0 0-40Z" fill="#A4ECFF" p-id="4270"></path><path d="M388 372l132 0 0 40-132 0 0-40Z" fill="#A4ECFF" p-id="4271"></path><path d="M388 452l264 0 0 40-264 0 0-40Z" fill="#A4ECFF" p-id="4272"></path><path d="M388 556l132 0 0 40-132 0 0-40Z" fill="#A4ECFF" p-id="4273"></path><path d="M388 636l264 0 0 40-264 0 0-40Z" fill="#A4ECFF" p-id="4274"></path><path d="M96 492m-20 0a20 20 0 1 0 40 0 20 20 0 1 0-40 0Z" fill="#D4FFD4" p-id="4275"></path><path d="M512 992m-16 0a16 16 0 1 0 32 0 16 16 0 1 0-32 0Z" fill="#D4FFD4" p-id="4276"></path><path d="M992 564m-12 0a12 12 0 1 0 24 0 12 12 0 1 0-24 0Z" fill="#D4FFD4" p-id="4277"></path><path d="M756 24m-8 0a8 8 0 1 0 16 0 8 8 0 1 0-16 0Z" fill="#D4FFD4" p-id="4278"></path><path d="M872 228m-4 0a4 4 0 1 0 8 0 4 4 0 1 0-8 0Z" fill="#D4FFD4" p-id="4279"></path><path d="M996 316m-20 0a20 20 0 1 0 40 0 20 20 0 1 0-40 0Z" fill="#FFBDBD" p-id="4280"></path><path d="M804 96m-16 0a16 16 0 1 0 32 0 16 16 0 1 0-32 0Z" fill="#FFBDBD" p-id="4281"></path><path d="M76 596m-12 0a12 12 0 1 0 24 0 12 12 0 1 0-24 0Z" fill="#FFBDBD" p-id="4282"></path><path d="M96 236m-8 0a8 8 0 1 0 16 0 8 8 0 1 0-16 0Z" fill="#FFBDBD" p-id="4283"></path><path d="M340 64m-4 0a4 4 0 1 0 8 0 4 4 0 1 0-8 0Z" fill="#FFBDBD" p-id="4284"></path><path d="M232 912m-20 0a20 20 0 1 0 40 0 20 20 0 1 0-40 0Z" fill="#BBF1FF" p-id="4285"></path><path d="M936 656m-16 0a16 16 0 1 0 32 0 16 16 0 1 0-32 0Z" fill="#BBF1FF" p-id="4286"></path><path d="M524 48m-12 0a12 12 0 1 0 24 0 12 12 0 1 0-24 0Z" fill="#BBF1FF" p-id="4287"></path><path d="M920 912m-8 0a8 8 0 1 0 16 0 8 8 0 1 0-16 0Z" fill="#BBF1FF" p-id="4288"></path><path d="M912 836m-4 0a4 4 0 1 0 8 0 4 4 0 1 0-8 0Z" fill="#BBF1FF" p-id="4289"></path><path d="M28 796m-20 0a20 20 0 1 0 40 0 20 20 0 1 0-40 0Z" fill="#FFF4C5" p-id="4290"></path><path d="M936 464m-16 0a16 16 0 1 0 32 0 16 16 0 1 0-32 0Z" fill="#FFF4C5" p-id="4291"></path><path d="M700 972m-12 0a12 12 0 1 0 24 0 12 12 0 1 0-24 0Z" fill="#FFF4C5" p-id="4292"></path><path d="M168 828m-8 0a8 8 0 1 0 16 0 8 8 0 1 0-16 0Z" fill="#FFF4C5" p-id="4293"></path><path d="M628 60m-4 0a4 4 0 1 0 8 0 4 4 0 1 0-8 0Z" fill="#FFF4C5" p-id="4294"></path></svg>